<?xml version="1.0" encoding="UTF-8"?>
<svg xmlns="http://www.w3.org/2000/svg" xmlns:xlink="http://www.w3.org/1999/xlink" version="1.1" viewBox="0 0 1024 1024">
  <!-- Generator: Adobe Illustrator 29.1.0, SVG Export Plug-In . SVG Version: 2.1.0 Build 142)  -->
  <defs>
    <style>
      .st0 {
        fill: none;
      }

      .st1 {
        fill: #071b24;
      }

      .st2 {
        fill: #e6e5e3;
      }

      .st3 {
        fill: #5496c1;
      }

      .st4 {
        fill: #e4e4e4;
      }

      .st5 {
        fill: #5597c2;
      }

      .st6 {
        fill: #091d29;
      }

      .st7 {
        fill: #e4e4e3;
      }

      .st8 {
        fill: #a9d7e4;
      }

      .st9 {
        fill: #85bed5;
      }

      .st10 {
        fill: #0b1e27;
      }

      .st11 {
        fill: #0a1d27;
      }

      .st12 {
        clip-path: url(#clippath-1);
      }

      .st13 {
        fill: #a8d5e3;
      }

      .st14 {
        fill: #2f5e7e;
      }

      .st15 {
        fill: #091d26;
      }

      .st16 {
        fill: #e6e6e5;
      }

      .st17 {
        clip-path: url(#clippath);
      }
    </style>
    <clipPath id="clippath">
      <circle class="st0" cx="-532" cy="512" r="512"/>
    </clipPath>
    <clipPath id="clippath-1">
      <circle class="st0" cx="512" cy="512" r="512"/>
    </clipPath>
  </defs>
  <g id="Text">
    <g class="st17">
      <path class="st2" d="M-20,0v1024h-1024V0H-20ZM-451.8,244c-18.8,2.2-33,19.9-34.7,38.2-1.5,73.3,1.5,146.7,1,219.8,0,4.6-1.3,8.8-1.1,14,1.2,22.8,16.2,40.6,39.5,42.5,42.7,3.4,92.6-1,135.9-1.1,35.8,0,76.4,3.8,112,1.1,22.1-1.7,38.6-18.5,40.5-40.5l-1-239.8c-7.5-32.8-30.5-34.9-59.5-34.5-34.4.5-69.4,2.6-103.8,0-40.8,3.4-88.7-4.4-128.6.3h0ZM-877.4,245c-16.8,3.2-29.3,17.5-31.7,34.2.8,83.1-1.7,166.6,1.3,249.5,5.2,17.1,20.1,29,38.1,29.8h247.8c19.9-1.8,35.9-17.4,37.5-37.5v-237.8c-1.5-19.4-15-35.7-34.5-38.4l-258.5.2h0ZM-526.5,394.6v-32.5c0-5.2-16-9.6-16,3,0,1.9,1,3.8,1,6,0,7.8-.1,15.7,0,23.5l-30.8,1.2c-2.7,4.9-3.8,11.3.9,15.4,1.4.7,2.1-.6,2.5-.6h27.5v33.5c0,4.2,15,5.9,15,1v-34.5l31.3-1c5.1-6.4,1.6-13.9-6.3-15.6-8.4-1.8-16.6,1.1-25,.5h0ZM-385.6,678.8v-33.5l-39.3-.8c-4.5.9-3.3,15.8-.2,15.8h22.5c.1,8.8,1.8,13.2-6.6,17.8-17.5,9.7-41.9,0-47.6-19-8.6-28.5,17.4-51.4,44.8-39.8,6.3,2.7,8.7,9.1,16,4,11.8-8.2,3.9-13.3-5.8-18.2-26.8-13.4-65.8-1-73.9,29.4-11,41.2,25.3,72.6,65,62,6.3-1.7,23.8-11.2,25.2-17.8h0ZM-764.6,601.6c-1,.3-1.7.9-2.2,1.8l-.5,90.4c.2,5.4,15.5,4.1,17,2.1l.9-91c-.2-4.8-12.3-4.2-15.3-3.3h0ZM-665.4,663.4c.1-1.6-.1-3.2-.8-4.7-8-18.5-19.4-36.7-27.7-55.2-6.9-3.1-18.9-5.3-20.3,4.5-4,27.7-3.9,57.1-8.1,84.9-.7,6.8,17.7,5.7,18.8,1.8l5.2-61.2,26.1,47.3c2,3.7,12.7,3.7,14.9.9l25.9-50.2,5.2,62.2c.6,5.1,9.3,4.2,13.3,3.8,7.2-.7,5.7-5.3,5.4-11.5-1-22.8-4.6-55.1-8.1-77.8-.3-2-1-4.1-2.3-5.7-2.1-1.6-16.5-1.6-18.6.5l-28.9,60.5h0ZM-528.7,601.6c-4.5.4-17.2-1.8-19.7,1.4l-35.4,87.5-.5,4.1c1.1,4.1,15.3,3.3,17.4,1.8,2.8-2,6.4-17.5,8.3-21.5l40.5-.7,10,22.1c2,1.5,19.5,3,18.3-3.4l-38.9-91.4h0ZM-295.2,680.3h-45.5c-.3-.7,1-1.2,1-1.5v-21.5h38.5c3.6,0,3.6-16,0-16h-38c-2.3-1.4-.5-2.2-.5-2.5v-19c0-.3-1.3-.8-1-1.5h45.5c3.6,0,2.5-13.2,2.4-15.8-.8-.4-1.7-.7-2.6-.9-9-1.6-49.3-1.6-58.8-.3-1.4.2-2.6.2-3.5,1.5l-.4,92.5,3,2h58.9l2.6-1.4c1.4-3,2-14.6-1.6-15.6h0ZM-666.6,729.6c-69.8.2-62.8,104.4,3.6,98.5,61.8-5.5,60.1-98.7-3.6-98.5ZM-754.6,731.5c-2.2.6-2.5,2.3-2.7,4.2-2.3,17.6,1.5,40.6,0,59-.9,11.6-5.8,17.8-18.3,15.2-4.1-.8-8.7-6.5-12-5.6-2,.5-9.2,7.2-9.6,9.6,4.7,11.6,19.8,14.3,31.3,13.2,20.1-1.8,26.3-13.8,27.5-32.4,1.3-19.5-.6-40.9-.5-60.5l-1-2c-1.4-1.4-12.6-1.4-14.8-.8h0ZM-576.5,731.3h-15.5l-2.5,5.5c1.9,26.7-2.4,56.7,0,83,.2,2.6.4,4.7,2.5,6.5h15.5v-94.9h0ZM-484.5,793.2l-46.5-61.9h-16l-1.5,1.5v91.9l1.5,1.5h15.5c-.3-1,1-2.2,1-2.5v-60.4l46.2,61.6c2.7,2.1,21,3.6,18.8-4.1-1.7-27.3,2.1-57,0-84-.2-1.9-.6-3.6-1-5.5h-15.5c-.2,0-2.5,2.3-2.5,2.5v59.4h0ZM-421.6,747.3h43.5c3.6,0,3.6-16,0-16h-59.9c-1.4.9-1.4,2-1.5,3.5-3.2,26.9,3,59.4-.6,86.8l2.2,4.6h61.4c1.3-2.5,2.2-16-1.5-16h-43.5v-23h36.5c5.5,0,6.7-13.8,1.3-16.2s-28.3-.1-35.7-.2c-1.2,0-1.3,0-2-1.1v-22.5h0ZM-276.8,826.2c.3-2.1-.3-3.5-1.2-5.3-2.2-4.7-20.2-27.4-19.8-29.1,26.6-12.1,26.3-50.7-3.2-58.7-14.8-4-32.9-.6-48.2-1.7l-3.3,3.7v88.5s1.4,2.8,1.4,2.8l16-.3,1.3-2.2v-28.5h16.5l22,31h18.5Z"/>
      <path class="st15" d="M-451.8,244c40-4.8,87.8,3,128.6-.3,34.4,2.6,69.4.5,103.8,0,29-.4,52,1.7,59.5,34.5l1,239.8c-1.9,22-18.4,38.7-40.5,40.5-35.6,2.8-76.1-1.2-112-1.1-43.2,0-93.2,4.5-135.9,1.1-23.2-1.8-38.3-19.6-39.5-42.5-.3-5.2,1-9.4,1.1-14,.5-73.1-2.5-146.6-1-219.8,1.7-18.3,16-36,34.7-38.2h0ZM-176.8,505c-3.6-73.5,2.7-149.9,0-223.8-7-24.8-35-19.8-55.5-19.5-71.5.8-143.2,1.6-214.8,1-9.1,1-14.5,4.5-17.9,13-.5,1.1-2.5,7-2.5,7.5v197.3c2.4.6,1.7-.6,2.3-1.3,8.4-9.5,16.5-19.5,24.7-29.2,20.7-24.6,42.7-56,64.5-78.4,8-8.2,15-8.3,23,0,13,13.4,25.9,32.8,38.5,47.5,6.6,7.7,14.7,15,20,23.5,1.5.4,1.7-.4,2.5-1,5.6-3.8,12.8-13.5,18.5-18.5,15.7-13.7,18.8-13.4,32,2,16.8,19.8,33.7,42.4,50,62.9M-363.7,385.6l-2.5,1-100.9,122c-.7,13,5,26.2,17.8,31.1l246,.8c8-.6,14-2.6,19-9l-73.5-96.5-2.5.5c-5.2,4.4-27.5,29.1-32.2,29.9-3.7.6-11.1-7.9-13.8-10.8-19.6-20.9-36.8-45.5-56.5-66.5-.6-.6-.9-1.6-1-2.5h0Z"/>
      <path class="st11" d="M-877.4,245l258.5-.2c19.5,2.7,33,19,34.5,38.4v237.8c-1.6,20.1-17.5,35.7-37.5,37.5h-247.8c-18-.8-32.9-12.7-38.1-29.8-3-82.9-.5-166.4-1.3-249.5,2.4-16.7,14.9-31,31.7-34.2h0ZM-602.4,507.5v-226.3c0-4-6.2-12-9.5-14.5-11.1-8.3-29.1-4.1-41.9-4-65.9.6-132,.3-197.9,0-8.8,0-13.4-1.8-22.9,1-7.2,2.2-16.5,10.5-16.5,18.4v200.3c7.6-7.1,14.3-15.5,20.9-23.5,24-29,47.3-58.6,71-87.9,8.4-6.9,14.3-5.9,21.5,1.5,17.9,18.5,37.5,44.2,54.4,64.5,1.8,2.1,4.2,4.9,5,7.5l2.5-1,26.1-25.9c9.1-4.9,13.4-1.1,19.3,5.4M-705.7,457.2c-12.2,10.2-15.2,8.1-25.1-2.6-13.4-14.5-25.3-32.3-38.9-47-2.3-2.4-18.3-18.2-19.9-17.9l-100,118.9c-5.5,14.1,5.8,31.2,20.9,32h242.8c3-.2,7.1-1.1,9.8-2.2,2.5-1.1,10.2-7,9.2-9.7l-75.5-93.5-2.5.5-20.8,21.7h0Z"/>
      <path class="st1" d="M-665.4,663.4l28.9-60.5c2.1-2.1,16.5-2.2,18.6-.5,1.4,1.6,2,3.6,2.3,5.7,3.5,22.8,7.1,55,8.1,77.8.3,6.3,1.8,10.8-5.4,11.5-4.1.4-12.7,1.3-13.3-3.8l-5.2-62.2-25.9,50.2c-2.2,2.7-12.9,2.7-14.9-.9l-26.1-47.3-5.2,61.2c-1.1,4-19.5,5-18.8-1.8,4.2-27.8,4.2-57.2,8.1-84.9,1.4-9.8,13.5-7.6,20.3-4.5,8.3,18.5,19.8,36.7,27.7,55.2.6,1.5.9,3.1.8,4.7h0Z"/>
      <path class="st1" d="M-484.5,793.2v-59.4c0-.2,2.3-2.5,2.5-2.5h15.5c.5,1.8.9,3.5,1,5.5,2.1,27-1.7,56.7,0,84,2.2,7.7-16.1,6.2-18.8,4.1l-46.2-61.6v60.4c0,.3-1.3,1.5-1,2.5h-15.5l-1.5-1.5v-91.9l1.5-1.5h16l46.5,61.9h0Z"/>
      <path class="st1" d="M-276.8,826.2h-18.5l-22-31h-16.5v28.5l-1.3,2.2-16,.3-1.4-2.8v-88.5s3.2-3.7,3.2-3.7c15.4,1.2,33.4-2.3,48.2,1.7,29.5,8,29.8,46.7,3.2,58.7-.4,1.7,17.7,24.4,19.8,29.1.8,1.8,1.5,3.2,1.2,5.3h0ZM-333.7,779.2c10.9-3.5,25.8,3.8,33.4-7.1,4.5-6.5,3.6-17-2.9-21.9-.9-.7-5.3-3-6-3h-24.5v32h0Z"/>
      <path class="st1" d="M-385.6,678.8c-1.4,6.6-18.8,16.1-25.2,17.8-39.7,10.6-76-20.8-65-62,8.1-30.4,47.1-42.8,73.9-29.4,9.7,4.8,17.6,9.9,5.8,18.2-7.3,5.1-9.6-1.3-16-4-27.4-11.6-53.4,11.3-44.8,39.8,5.8,19,30.2,28.7,47.6,19,8.4-4.7,6.8-9.1,6.6-17.8h-22.5c-3.1,0-4.3-14.9.2-15.8l39.3.8v33.5h0Z"/>
      <path class="st1" d="M-666.6,729.6c63.7-.2,65.4,93,3.6,98.5-66.4,5.9-73.4-98.3-3.6-98.5ZM-671.6,745.6c-37.1,4.4-35.1,71.8,10.6,65.6,7.5-1,16.4-8.5,20-15,13.1-23.3-2.5-53.9-30.6-50.6h0Z"/>
      <path class="st1" d="M-295.2,680.3c3.6,1,3,12.6,1.6,15.6l-2.6,1.4h-58.9l-3-2,.4-92.5c1-1.2,2.2-1.3,3.5-1.5,9.5-1.2,49.8-1.3,58.8.3.9.2,1.8.5,2.6.9.1,2.6,1.2,15.8-2.4,15.8h-45.5c-.3.7,1,1.2,1,1.5v19c0,.3-1.8,1.1.5,2.5h38c3.6,0,3.6,16,0,16h-38.5v21.5c0,.3-1.3.8-1,1.5h45.5,0Z"/>
      <path class="st1" d="M-528.7,601.6l38.9,91.4c1.2,6.4-16.2,4.9-18.3,3.4l-10-22.1-40.5.7c-1.9,4-5.5,19.5-8.3,21.5-2.1,1.5-16.3,2.3-17.4-1.8l.5-4.1,35.4-87.5c2.5-3.3,15.2-1,19.7-1.4h0ZM-522.5,659.4l-16-39-14,39h30Z"/>
      <path class="st1" d="M-421.6,747.3v22.5c.8,1,.9,1.1,2,1.1,7.4,0,30.3-2.3,35.7.2s4.2,16.2-1.3,16.2h-36.5v23h43.5c3.7,0,2.8,13.4,1.5,16h-61.4l-2.2-4.6c3.6-27.4-2.5-59.9.6-86.8.2-1.5.1-2.6,1.5-3.5h59.9c3.6,0,3.6,16,0,16h-43.5,0Z"/>
      <path class="st10" d="M-526.5,394.6c8.4.5,16.7-2.3,25-.5,7.8,1.6,11.4,9.2,6.3,15.6l-31.3,1v34.5c0,4.9-15,3.2-15-1v-33.5h-27.5c-.4,0-1.1,1.3-2.5.6-4.7-4.1-3.5-10.5-.9-15.4l30.8-1.2c0-7.8,0-15.7,0-23.5,0-2.1-1-4.1-1-6,0-12.6,16-8.2,16-3v32.5h0Z"/>
      <path class="st1" d="M-754.6,731.5c2.3-.7,13.4-.7,14.8.8l1,2c-.1,19.6,1.8,41,.5,60.5s-7.4,30.6-27.5,32.4c-11.5,1-26.7-1.6-31.3-13.2.3-2.4,7.6-9,9.6-9.6,3.3-.9,7.9,4.8,12,5.6,12.5,2.6,17.4-3.6,18.3-15.2,1.4-18.4-2.4-41.4,0-59,.3-2,.6-3.6,2.7-4.2h0Z"/>
      <path class="st1" d="M-576.5,731.3v94.9h-15.5c-2.2-1.8-2.3-3.9-2.5-6.5-2.4-26.3,1.9-56.3,0-83l2.5-5.5h15.5,0Z"/>
      <path class="st1" d="M-764.6,601.6c3-.9,15-1.5,15.3,3.3l-.9,91c-1.6,2-16.9,3.3-17-2.1l.5-90.4c.5-.9,1.2-1.5,2.2-1.8h0Z"/>
      <path class="st3" d="M-191.9,488c-16.3-20.5-33.1-43.2-50-62.9-13.1-15.4-16.3-15.8-32-2-5.7,5-12.8,14.7-18.5,18.5-.8.6-1,1.4-2.5,1-5.3-8.5-13.3-15.8-20-23.5-12.6-14.6-25.5-34.1-38.5-47.5-8-8.3-15-8.2-23,0-21.8,22.4-43.8,53.9-64.5,78.4-8.2,9.7-16.3,19.8-24.7,29.2-.6.7,0,1.9-2.3,1.3v-197.3c0-.5,2.1-6.3,2.5-7.5,3.4-8.5,8.8-12,17.9-13,71.6.6,143.3-.2,214.8-1,20.5-.2,48.5-5.2,55.5,19.5,2.7,73.9-3.6,150.2,0,223.8M-258,300c-42.7,4.9-37.5,69.8,5.7,68.7,48.5-1.2,42.3-74.2-5.7-68.7Z"/>
      <path class="st14" d="M-363.7,385.6c0,.9.4,1.8,1,2.5,19.7,21,36.9,45.6,56.5,66.5,2.7,2.9,10.1,11.4,13.8,10.8,4.6-.7,26.9-25.4,32.2-29.9l2.5-.5,73.5,96.5c-5,6.4-11,8.4-19,9l-246-.8c-12.8-4.9-18.5-18.1-17.8-31.1l100.9-122,2.5-1Z"/>
      <path class="st13" d="M-602.4,507.5c-1.2-.3-2.1-1.6-3-2.5-22.6-25.4-42.1-57-65-81.9-6-6.5-10.2-10.2-19.3-5.4l-26.1,25.9-2.5,1c-.9-2.6-3.3-5.3-5-7.5-16.9-20.3-36.5-45.9-54.4-64.5-7.2-7.4-13.1-8.4-21.5-1.5-23.7,29.2-46.9,58.9-71,87.9-6.7,8-13.4,16.4-20.9,23.5v-200.3c0-7.9,9.4-16.3,16.5-18.4,9.5-2.9,14.1-1,22.9-1,65.9.3,132,.6,197.9,0,12.8-.1,30.8-4.4,41.9,4,3.2,2.4,9.5,10.5,9.5,14.5v226.3h0ZM-704,312c-5,5-8.6,13.2-9.2,20.2-4.2,45.4,74.1,51.7,67.8-3.1-3-26.3-40.7-35-58.6-17.1Z"/>
      <path class="st9" d="M-705.7,457.2l20.8-21.7,2.5-.5,75.5,93.5c1,2.7-6.7,8.6-9.2,9.7-2.7,1.2-6.8,2-9.8,2.2h-242.8c-15.1-.7-26.4-17.9-20.9-32l100-118.9c1.6-.3,17.6,15.5,19.9,17.9,13.6,14.6,25.5,32.5,38.9,47,9.9,10.7,12.9,12.9,25.1,2.6h0Z"/>
      <path class="st7" d="M-333.7,779.2v-32h24.5c.7,0,5.1,2.3,6,3,6.5,4.9,7.5,15.5,2.9,21.9-7.6,10.8-22.5,3.5-33.4,7.1h0Z"/>
      <path class="st16" d="M-671.6,745.6c28.1-3.3,43.7,27.3,30.6,50.6-3.6,6.5-12.5,13.9-20,15-45.7,6.3-47.7-61.2-10.6-65.6h0Z"/>
      <polygon class="st4" points="-522.5 659.4 -552.5 659.4 -538.5 620.4 -522.5 659.4"/>
      <path class="st6" d="M-258,300c48-5.5,54.1,67.5,5.7,68.7-43.2,1.1-48.4-63.8-5.7-68.7ZM-242.1,346.3c15.1-14.8-5-38.8-22.1-26.6-18.9,13.4,5.2,43.1,22.1,26.6Z"/>
      <path d="M-704,312c17.9-17.9,55.6-9.1,58.6,17.1,6.2,54.8-72,48.5-67.8,3.1.6-7,4.2-15.3,9.2-20.2ZM-691,347.3c18.3,17.1,42-14.2,21-26.5-18.2-10.7-35.5,12.9-21,26.5Z"/>
      <path class="st5" d="M-242.1,346.3c-16.9,16.5-41-13.2-22.1-26.6,17.1-12.1,37.3,11.8,22.1,26.6Z"/>
      <path class="st8" d="M-691,347.3c-14.5-13.6,2.8-37.1,21-26.5,21,12.3-2.7,43.6-21,26.5Z"/>
    </g>
  </g>
  <g id="Mask">
    <g class="st12">
      <rect class="st2" width="1024" height="1024"/>
      <g>
        <path class="st15" d="M476.2,464.9c54.9-6.6,120.8,4.2,176.9-.5,47.3,3.6,95.4.7,142.7,0,39.8-.6,71.5,2.3,81.8,47.4l1.4,329.7c-2.6,30.2-25.2,53.3-55.6,55.6-48.9,3.8-104.7-1.6-154-1.5-59.5.1-128.1,6.1-186.8,1.5-32-2.5-52.7-27-54.3-58.4-.4-7.1,1.4-12.9,1.5-19.2.6-100.6-3.4-201.5-1.4-302.3,2.3-25.2,22-49.4,47.8-52.5h0ZM854.2,823.7c-4.9-101.1,3.7-206.2,0-307.7-9.6-34.1-48.1-27.2-76.3-26.8-98.2,1.1-196.9,2.2-295.3,1.4-12.5,1.4-20,6.2-24.7,17.9-.6,1.6-3.5,9.6-3.5,10.3v271.3c3.2.9,2.3-.8,3.1-1.8,11.6-13,22.7-26.8,33.9-40.2,28.4-33.8,58.7-77,88.6-107.8,11-11.3,20.6-11.4,31.6,0,17.8,18.4,35.6,45.1,52.9,65.2,9.1,10.6,20.2,20.6,27.5,32.3,2,.5,2.3-.5,3.4-1.3,7.7-5.3,17.5-18.6,25.4-25.5,21.5-18.9,25.9-18.4,43.9,2.8,23.2,27.2,46.3,58.3,68.7,86.5M597.3,659.5l-3.4,1.3-138.7,167.7c-1,17.9,6.8,36,24.4,42.8l338.3,1.1c10.9-.9,19.2-3.5,26.1-12.4l-101-132.7-3.5.7c-7.2,6.1-37.9,40.1-44.2,41.1-5.1.8-15.2-10.9-18.9-14.9-26.9-28.8-50.6-62.6-77.6-91.4-.8-.9-1.3-2.2-1.4-3.4h0Z"/>
        <path class="st3" d="M833.6,800.4c-22.4-28.3-45.5-59.4-68.7-86.5-18.1-21.2-22.4-21.7-43.9-2.8-7.8,6.9-17.6,20.2-25.4,25.5-1.2.8-1.4,1.9-3.4,1.3-7.3-11.8-18.3-21.7-27.5-32.3-17.3-20.1-35.1-46.8-52.9-65.2-11-11.4-20.7-11.3-31.6,0-30,30.8-60.2,74.1-88.6,107.8-11.2,13.3-22.4,27.2-33.9,40.2-.8.9,0,2.6-3.1,1.8v-271.3c0-.7,2.8-8.7,3.5-10.3,4.7-11.7,12.1-16.5,24.7-17.9,98.4.8,197.1-.2,295.3-1.4,28.1-.3,66.7-7.2,76.3,26.8,3.7,101.5-4.9,206.6,0,307.7M742.7,541.8c-58.8,6.7-51.6,95.9,7.8,94.4,66.6-1.7,58.1-102-7.8-94.4Z"/>
        <path class="st14" d="M597.3,659.5c.1,1.2.5,2.5,1.4,3.4,27,28.8,50.8,62.6,77.6,91.4,3.7,4,13.9,15.7,18.9,14.9,6.4-1,37-35,44.2-41.1l3.5-.7,101,132.7c-6.9,8.8-15.2,11.5-26.1,12.4l-338.3-1.1c-17.6-6.8-25.4-24.9-24.4-42.8l138.7-167.7,3.4-1.3Z"/>
        <path class="st6" d="M742.7,541.8c65.9-7.5,74.4,92.8,7.8,94.4-59.4,1.5-66.6-87.7-7.8-94.4ZM764.5,605.5c20.8-20.3-6.9-53.3-30.4-36.6-26,18.4,7.2,59.3,30.4,36.6Z"/>
        <path class="st5" d="M764.5,605.5c-23.2,22.7-56.4-18.2-30.4-36.6,23.5-16.7,51.2,16.3,30.4,36.6Z"/>
      </g>
      <g>
        <path class="st11" d="M187,158.6l355.4-.3c26.9,3.7,45.3,26.1,47.5,52.8v327c-2.2,27.6-24.1,49.1-51.5,51.5H197.6c-24.7-1.1-45.3-17.5-52.4-41-4.1-113.9-.6-228.7-1.8-343,3.4-23,20.6-42.6,43.6-47.1h0ZM565.1,519.5V208.4c0-5.5-8.6-16.6-13-19.9-15.3-11.5-40-5.6-57.6-5.4-90.6.9-181.5.4-272.1,0-12,0-18.4-2.5-31.5,1.4-9.9,3-22.7,14.5-22.7,25.3v275.4c10.4-9.8,19.6-21.3,28.8-32.3,33.1-39.8,65-80.6,97.6-120.8,11.5-9.5,19.7-8.1,29.5,2,24.7,25.5,51.5,60.8,74.8,88.6,2.4,2.9,5.7,6.7,6.9,10.3l3.4-1.3,35.9-35.5c12.5-6.7,18.4-1.5,26.5,7.4M423.1,450.3c-16.8,14.1-21,11.1-34.6-3.6-18.5-20-34.8-44.5-53.5-64.6-3.1-3.4-25.2-25-27.3-24.6l-137.5,163.4c-7.5,19.3,7.9,42.9,28.7,43.9h333.9c4.1-.3,9.7-1.5,13.4-3.1,3.5-1.5,14-9.6,12.7-13.4l-103.8-128.6-3.5.7-28.6,29.8h0Z"/>
        <path class="st13" d="M565.1,519.5c-1.7-.4-3-2.2-4.1-3.5-31.1-34.9-57.9-78.3-89.4-112.6-8.2-8.9-14-14.1-26.5-7.4l-35.9,35.5-3.4,1.3c-1.2-3.6-4.5-7.3-6.9-10.3-23.3-27.9-50.2-63.2-74.8-88.6-9.8-10.2-18.1-11.6-29.5-2-32.5,40.2-64.5,81-97.6,120.8-9.2,11.1-18.4,22.5-28.8,32.3V209.8c0-10.8,12.9-22.4,22.7-25.3,13-3.9,19.4-1.4,31.5-1.4,90.6.4,181.5.9,272.1,0,17.6-.2,42.3-6,57.6,5.4,4.5,3.4,13,14.4,13,19.9v311.1h0ZM425.5,250.8c-6.8,6.8-11.8,18.2-12.7,27.8-5.7,62.4,101.8,71.1,93.2-4.3-4.1-36.1-55.9-48.2-80.6-23.6Z"/>
        <path class="st9" d="M423.1,450.3l28.6-29.8,3.5-.7,103.8,128.6c1.3,3.8-9.2,11.9-12.7,13.4-3.7,1.6-9.3,2.7-13.4,3.1H199c-20.8-1-36.3-24.6-28.7-43.9l137.5-163.4c2.1-.4,24.2,21.3,27.3,24.6,18.7,20.1,35.1,44.6,53.5,64.6,13.6,14.7,17.7,17.7,34.6,3.6h0Z"/>
        <path d="M425.5,250.8c24.6-24.6,76.5-12.6,80.6,23.6,8.6,75.4-99,66.7-93.2,4.3.9-9.6,5.8-21,12.7-27.8ZM443.3,299.2c25.1,23.6,57.7-19.5,28.8-36.4-25-14.7-48.8,17.7-28.8,36.4Z"/>
        <path class="st8" d="M443.3,299.2c-19.9-18.7,3.8-51.1,28.8-36.4,28.8,16.9-3.7,60-28.8,36.4Z"/>
      </g>
      <path class="st10" d="M721.1,315c18.9,1.1,37.5-5.2,56.3-1.2,17.6,3.7,25.7,20.7,14.1,35.1l-70.4,2.2v77.6c0,11-33.7,7.1-33.7-2.2v-75.3h-61.8c-.8,0-2.4,2.9-5.6,1.3-10.5-9.2-7.9-23.6-1.9-34.6l69.3-2.6c-.2-17.6.2-35.3,0-52.9,0-4.8-2.4-9.2-2.4-13.4,0-28.3,36-18.4,36-6.7v73.1h0Z"/>
    </g>
  </g>
</svg>